# xmcd
#
# Track frame offsets:
#	150
#	17307
#	40020
#	57287
#	82301
#	107203
#	122705
#	141435
#	159695
#	175161
#	195829
#
# Disc length: 2925 seconds
#
# Revision: 1
# Processed by: cddbd v1.5.2PL0 Copyright (c) Steve Scherf et al.
# Submitted via: audiograbber 1.83.01
#
DISCID=8e0b6b0b
DTITLE=Keith Urban - Defying Gravity
DYEAR=2009
DGENRE=Country
TTITLE0=Kiss A Girl
TTITLE1=If Ever I Could Love
TTITLE2=Sweet Thing
TTITLE3='Til Summer Comes Around
TTITLE4=My Heart Is Open
TTITLE5=Hit The Ground Runnin'
TTITLE6=Only You Can Love Me This Way
TTITLE7=Standing Right In Front Of You
TTITLE8=Why's It Feel So Long
TTITLE9=I'm In
TTITLE10=Thank You
EXTD=
EXTT0=
EXTT1=
EXTT2=
EXTT3=
EXTT4=
EXTT5=
EXTT6=
EXTT7=
EXTT8=
EXTT9=
EXTT10=
PLAYORDER=
